<?xml version="1.0"?>
<svg width="640" height="480" xmlns="http://www.w3.org/2000/svg" xmlns:svg="http://www.w3.org/2000/svg">
 <!-- Created with SVG-edit - https://github.com/SVG-Edit/svgedit-->

 <g class="layer">
  <title>Logo</title>
  <text fill="#007fff" font-family="Serif" font-size="24" id="svg_2" stroke="#003f7f" stroke-dasharray="null" stroke-linecap="null" stroke-linejoin="null" text-anchor="middle" transform="matrix(18.3275 0 0 13.189 -1243.27 -1981.28)" x="86.207005" xml:space="preserve" y="175.460737">S</text>
  <polygon cx="142.5" cy="168.5" fill="#000000" id="svg_3" orient="point" point="5" points="263.5,99.5 263.5,99.5 263.5,99.5 263.5,99.5 263.5,99.5 263.5,99.5 263.5,99.5 263.5,99.5 263.5,99.5 263.5,99.5 263.5,99.5 263.5,99.5 " r="0" r2="0" shape="star" stroke="#000000" stroke-width="0" strokeWidth="0" strokecolor="#000000"/>
  <polygon cx="227.5" cy="227.5" fill="#00bf00" id="svg_6" orient="point" point="5" points="451.5,357.7335662841797 456.61761474609375,372.45623779296875 472.20111083984375,372.7738037109375 459.7803955078125,382.1904754638672 464.29400634765625,397.1094207763672 451.5,388.2065734863281 438.70599365234375,397.1094207763672 443.21954345703125,382.1904754638672 430.79888916015625,372.7738037109375 446.3824462890625,372.45623779296875 451.5,357.7335662841797 456.61761474609375,372.45623779296875 " r="21.766437" r2="8.706575" shape="star" stroke="#ffff56" stroke-width="2" strokeWidth="0" strokecolor="#000000"/>
  <polygon cx="111.5" cy="104.5" fill="#000000" id="svg_7" orient="point" point="5" r="0" r2="0" shape="star" strokeWidth="0" strokecolor="#000000"/>
  <text fill="#ff7f00" font-family="Serif" font-size="24" id="svg_1" stroke="#bf5f00" text-anchor="middle" transform="matrix(20.094 0 0 18.3275 -1589.99 -1631.66)" x="94.533387" xml:space="preserve" y="109.383247">C</text>
 </g>
</svg>